# This file uses meters as units for non-parametric coordinates.

v -4.175411 -4.064181 6.107954
v -4.175411 -1.206324 6.107954
v 1.359739 -4.064181 6.107954
v 1.359739 -1.206324 6.107954
v -4.175411 1.206274 6.107954
v -4.175411 4.064181 6.107954
v 1.359739 1.206274 6.107954
v 1.359739 4.064181 6.107954
v 4.175411 -4.064181 6.107954
v 4.175411 -1.206324 6.107954
v 4.175411 1.206274 6.107954
v 4.175411 4.064181 6.107954
v -4.175411 -4.064181 -6.107954
v -4.175411 -1.206324 -6.107954
v 1.359739 -1.206324 -6.107954
v 1.359739 1.206274 -6.107954
v -4.175411 1.206274 -6.107954
v -4.175411 4.064181 -6.107954
v 1.359739 4.064181 -6.107954
v 4.175411 4.064181 -6.107954
v 4.175411 1.206274 -6.107954
v 4.175411 -1.206324 -6.107954
v 4.175411 -4.064181 -6.107954
v 1.359739 -4.064181 -6.107954
vt 0.000000 0.000000
vt 1.000000 0.000000
vt 1.000000 0.500000
vt 0.500000 0.500000
vt 0.000000 0.000000
vt 1.000000 0.000000
vt 0.500000 0.500000
vt 0.000000 0.500000
vt 1.000000 1.000000
vt 0.500000 1.000000
vt 0.500000 1.000000
vt 0.000000 1.000000
vt 1.000000 0.000000
vt 0.000000 0.000000
vt 0.500000 0.500000
vt 0.500000 0.500000
vt 1.000000 0.000000
vt 0.000000 0.000000
vt 0.000000 0.500000
vt 0.000000 1.000000
vt 0.500000 1.000000
vt 0.500000 1.000000
vt 1.000000 1.000000
vt 1.000000 0.500000
vn -1.000000 0.000000 0.000000
vn -1.000000 0.000000 0.000000
vn -1.000000 0.000000 0.000000
vn -1.000000 0.000000 0.000000
vn 0.000000 1.000000 0.000000
vn 0.000000 1.000000 0.000000
vn 0.000000 1.000000 0.000000
vn 0.000000 1.000000 0.000000
vn -1.000000 0.000000 0.000000
vn -1.000000 0.000000 0.000000
vn -1.000000 0.000000 0.000000
vn -1.000000 0.000000 0.000000
vn 0.000000 -1.000000 -0.000000
vn 0.000000 -1.000000 -0.000000
vn 0.000000 -1.000000 -0.000000
vn 0.000000 -1.000000 -0.000000
vn -1.000000 0.000000 0.000000
vn -1.000000 0.000000 0.000000
vn -1.000000 0.000000 0.000000
vn -1.000000 0.000000 0.000000
vn 0.000000 1.000000 0.000000
vn 0.000000 1.000000 0.000000
vn 0.000000 1.000000 0.000000
vn 0.000000 1.000000 0.000000
vn 0.000000 1.000000 0.000000
vn 0.000000 1.000000 0.000000
vn 0.000000 1.000000 0.000000
vn 0.000000 1.000000 0.000000
vn 1.000000 -0.000000 0.000000
vn 1.000000 -0.000000 0.000000
vn 1.000000 -0.000000 0.000000
vn 1.000000 -0.000000 0.000000
vn 1.000000 -0.000000 0.000000
vn 1.000000 -0.000000 0.000000
vn 1.000000 -0.000000 0.000000
vn 1.000000 -0.000000 0.000000
vn 1.000000 -0.000000 0.000000
vn 1.000000 -0.000000 0.000000
vn 1.000000 -0.000000 0.000000
vn 1.000000 -0.000000 0.000000
vn 0.000000 -1.000000 -0.000000
vn 0.000000 -1.000000 -0.000000
vn 0.000000 -1.000000 -0.000000
vn 0.000000 -1.000000 -0.000000
vn 0.000000 -1.000000 -0.000000
vn 0.000000 -1.000000 -0.000000
vn 0.000000 -1.000000 -0.000000
vn 0.000000 -1.000000 -0.000000
vn 0.000000 -0.000000 1.000000
vn 0.000000 -0.000000 1.000000
vn 0.000000 -0.000000 1.000000
vn 0.000000 -0.000000 1.000000
vn 0.000000 -0.000000 1.000000
vn 0.000000 -0.000000 1.000000
vn 0.000000 -0.000000 1.000000
vn 0.000000 -0.000000 1.000000
vn 0.000000 -0.000000 1.000000
vn 0.000000 -0.000000 1.000000
vn 0.000000 -0.000000 1.000000
vn 0.000000 -0.000000 1.000000
vn 0.000000 -0.000000 1.000000
vn 0.000000 -0.000000 1.000000
vn 0.000000 -0.000000 1.000000
vn 0.000000 -0.000000 1.000000
vn 0.000000 -0.000000 1.000000
vn 0.000000 -0.000000 1.000000
vn 0.000000 -0.000000 1.000000
vn 0.000000 -0.000000 1.000000
vn 0.000000 0.000000 -1.000000
vn 0.000000 0.000000 -1.000000
vn 0.000000 0.000000 -1.000000
vn 0.000000 0.000000 -1.000000
vn 0.000000 0.000000 -1.000000
vn 0.000000 0.000000 -1.000000
vn 0.000000 0.000000 -1.000000
vn 0.000000 0.000000 -1.000000
vn 0.000000 0.000000 -1.000000
vn 0.000000 0.000000 -1.000000
vn 0.000000 0.000000 -1.000000
vn 0.000000 0.000000 -1.000000
vn 0.000000 0.000000 -1.000000
vn 0.000000 0.000000 -1.000000
vn 0.000000 0.000000 -1.000000
vn 0.000000 0.000000 -1.000000
vn 0.000000 0.000000 -1.000000
vn 0.000000 0.000000 -1.000000
vn 0.000000 0.000000 -1.000000
vn 0.000000 0.000000 -1.000000
f 14/14/1 13/13/2 1/2/3 2/1/4
f 15/15/5 14/14/6 2/1/7 4/4/8
f 16/16/9 15/15/10 4/4/11 7/7/12
f 17/17/13 16/16/14 7/7/15 5/6/16
f 18/18/17 17/17/18 5/6/19 6/5/20
f 19/19/21 18/18/22 6/5/23 8/8/24
f 20/20/25 19/19/26 8/8/27 12/12/28
f 21/21/29 20/20/30 12/12/31 11/11/32
f 22/22/33 21/21/34 11/11/35 10/10/36
f 23/23/37 22/22/38 10/10/39 9/9/40
f 24/24/41 23/23/42 9/9/43 3/3/44
f 13/13/45 24/24/46 3/3/47 1/2/48
f 5/6/49 7/7/50 8/8/51 6/5/52
f 1/2/53 3/3/54 4/4/55 2/1/56
f 9/9/57 10/10/58 4/4/59 3/3/60
f 7/7/61 4/4/62 10/10/63 11/11/64
f 11/11/65 12/12/66 8/8/67 7/7/68
f 14/14/69 15/15/70 24/24/71 13/13/72
f 16/16/73 17/17/74 18/18/75 19/19/76
f 20/20/77 21/21/78 16/16/79 19/19/80
f 15/15/81 16/16/82 21/21/83 22/22/84
f 22/22/85 23/23/86 24/24/87 15/15/88
