# This file uses centimeters as units for non-parametric coordinates.

mtllib Orb_I.mtl
v 0.274328 -0.274328 0.274328
v 0.274328 -0.274328 -0.274331
v 0.274328 0.274328 0.274328
v 0.274328 0.274328 -0.274331
v -0.274343 0.274328 0.274328
v -0.274343 0.274328 -0.274331
v -0.274343 -0.274328 0.274328
v -0.274343 -0.274328 -0.274331
v -0.370343 -0.370342 -0.000001
v 0.370343 -0.370342 -0.000001
v 0.370343 0.370343 -0.000001
v -0.370343 0.370343 -0.000001
v 0.341540 -0.082288 0.341541
v 0.341540 0.082290 0.341541
v 0.466347 -0.082288 -0.000001
v 0.466347 0.082290 -0.000001
v 0.341540 0.082290 -0.341544
v 0.341540 -0.082288 -0.341544
v 0.082276 0.341541 0.341541
v -0.082290 0.341541 0.341541
v 0.082276 0.466360 -0.000001
v -0.082290 0.466360 -0.000001
v -0.082290 0.341541 -0.341544
v 0.082276 0.341541 -0.341544
v -0.341545 0.082290 0.341541
v -0.341545 -0.082288 0.341541
v -0.466362 0.082290 -0.000001
v -0.466362 -0.082288 -0.000001
v -0.341545 -0.082288 -0.341544
v -0.341545 0.082290 -0.341544
v -0.082290 -0.341541 0.341541
v 0.082276 -0.341541 0.341541
v -0.082290 -0.466359 -0.000001
v 0.082276 -0.466359 -0.000001
v 0.082276 -0.341541 -0.341544
v -0.082290 -0.341541 -0.341544
v 0.082276 0.082290 -0.438930
v 0.082276 -0.082288 -0.438930
v -0.082290 -0.082288 -0.438930
v -0.082290 0.082290 -0.438930
v -0.082290 0.082290 0.438927
v -0.082290 -0.082288 0.438927
v 0.082276 -0.082288 0.438927
v 0.082276 0.082290 0.438927
v 0.082276 0.277567 0.278140
v -0.082290 0.277567 0.278135
v -0.082290 0.067423 0.357078
v 0.082276 0.067424 0.357078
v 0.082276 0.379216 -0.000001
v -0.082290 0.379216 -0.000001
v 0.082276 0.277567 -0.278138
v -0.082290 0.277567 -0.278138
v -0.082290 -0.277567 0.278135
v 0.082276 -0.277567 0.278135
v 0.082276 -0.067423 0.357078
v -0.082290 -0.067422 0.357078
v -0.082290 -0.379215 -0.000001
v 0.082276 -0.379215 -0.000001
v -0.082290 -0.277567 -0.278138
v 0.082276 -0.277567 -0.278138
vt 0.287494 0.250000
vt 0.285739 0.161112
vt 0.375000 0.412496
vt 0.625000 0.337506
vt 0.787496 0.250000
vt 0.714261 0.161112
vt 0.125000 0.162496
vt 0.214259 0.161112
vt 0.375000 0.662496
vt 0.625000 0.587504
vt 0.875000 0.087504
vt 0.785741 0.161112
vt 0.212504 0.000000
vt 0.285739 0.088888
vt 0.213888 0.089260
vt 0.375000 0.912494
vt 0.625000 0.837504
vt 0.712506 0.000000
vt 0.786112 0.089260
vt 0.714261 0.088888
vt 0.375000 0.000000
vt 0.375000 0.087504
vt 0.500000 0.000000
vt 0.500001 0.097225
vt 0.625000 0.162496
vt 0.500001 0.152775
vt 0.500000 0.250000
vt 0.375000 0.337506
vt 0.625000 0.250000
vt 0.500000 0.347226
vt 0.625000 0.412496
vt 0.500000 0.402775
vt 0.375000 0.500000
vt 0.500000 0.500000
vt 0.375000 0.587504
vt 0.624999 0.500001
vt 0.500000 0.597225
vt 0.625000 0.662496
vt 0.500000 0.652775
vt 0.375001 0.749999
vt 0.500000 0.750000
vt 0.375000 0.837504
vt 0.625000 0.750000
vt 0.500000 0.847225
vt 0.625000 0.912494
vt 0.625000 1.000000
vt 0.500000 1.000000
vt 0.500000 0.902774
vt 0.375000 1.000000
vt 0.625000 0.000000
vt 0.625000 0.087504
vt 0.787496 0.000000
vt 0.875000 0.000000
vt 0.875000 0.162496
vt 0.875000 0.250000
vt 0.712506 0.250000
vt 0.125000 0.000000
vt 0.125000 0.087504
vt 0.287494 0.000000
vt 0.375000 0.162496
vt 0.375000 0.250000
vt 0.212504 0.250000
vt 0.125000 0.250000
vt 0.212504 0.250000
vt 0.214259 0.161112
vt 0.285739 0.161112
vt 0.287494 0.250000
vt 0.375000 0.337506
vt 0.500000 0.347226
vt 0.500000 0.402775
vt 0.375000 0.412496
vt 0.625000 0.337506
vt 0.625000 0.412496
vt 0.287494 0.000000
vt 0.285739 0.088888
vt 0.213888 0.089260
vt 0.212504 0.000000
vt 0.375000 0.837504
vt 0.500000 0.847225
vt 0.500000 0.902774
vt 0.375000 0.912494
vt 0.625000 0.837504
vt 0.625000 0.912494
vt 0.000000 0.000000
vt 1.000000 0.000000
vt 1.000000 1.000000
vt 0.000000 1.000000
vt 0.000000 0.000000
vt 1.000000 0.000000
vt 1.000000 1.000000
vt 0.000000 1.000000
vt 0.000000 0.000000
vt 1.000000 0.000000
vt 1.000000 1.000000
vt 0.000000 1.000000
vt 0.000000 0.000000
vt 1.000000 0.000000
vt 1.000000 1.000000
vt 0.000000 1.000000
vt 0.000000 0.000000
vt 1.000000 0.000000
vt 1.000000 1.000000
vt 0.000000 1.000000
vt 0.000000 0.000000
vt 0.819406 0.000000
vt 0.819402 1.000000
vt 0.000004 1.000000
vt 0.000000 0.000000
vt 0.452599 0.000000
vt 0.452599 1.000000
vt 0.000000 1.000000
vn 0.739009 -0.211215 0.639729
vn 0.739009 0.211216 0.639729
vn 0.366137 0.201673 0.908445
vn 0.366136 -0.201673 0.908445
vn 0.977186 0.212384 -0.000000
vn 0.977186 -0.212383 -0.000001
vn 0.739006 -0.211216 -0.639733
vn 0.739007 0.211217 -0.639731
vn 0.214779 -0.214775 -0.952755
vn 0.214780 0.214776 -0.952754
vn -0.000016 0.753254 0.657730
vn -0.000016 0.753262 0.657721
vn -0.000018 0.223053 0.974806
vn -0.000018 0.223054 0.974806
vn -0.000004 1.000000 0.000000
vn -0.000004 1.000000 0.000000
vn 0.000000 0.993971 -0.109642
vn 0.000000 0.993971 -0.109642
vn -0.739007 0.211218 0.639731
vn -0.739009 -0.211217 0.639729
vn -0.366144 -0.201670 0.908443
vn -0.366139 0.201671 0.908444
vn -0.977186 0.212388 -0.000000
vn -0.977186 -0.212387 -0.000001
vn -0.739007 0.211218 -0.639731
vn -0.739006 -0.211218 -0.639733
vn -0.214783 0.214775 -0.952754
vn -0.214782 -0.214774 -0.952754
vn -0.000010 -0.753256 0.657727
vn -0.000010 -0.753256 0.657727
vn -0.000018 -0.223060 0.974805
vn -0.000018 -0.223059 0.974805
vn 0.000000 -1.000000 0.000000
vn 0.000000 -1.000000 0.000000
vn 0.000000 -0.993971 -0.109642
vn 0.000000 -0.993971 -0.109642
vn 0.595922 -0.595936 0.538273
vn 0.707098 -0.707115 -0.000001
vn 0.595922 -0.595935 -0.538273
vn 0.595922 0.595937 -0.538271
vn 0.707097 0.707116 -0.000001
vn 0.595922 0.595937 0.538272
vn 0.370489 0.928837 -0.000001
vn 0.376960 0.703140 0.602906
vn 0.282419 0.629144 -0.724167
vn -0.370498 0.928833 -0.000000
vn -0.282424 0.629141 -0.724168
vn -0.595936 0.595931 -0.538263
vn -0.707097 0.707116 -0.000000
vn -0.376965 0.703137 0.602906
vn -0.595933 0.595931 0.538265
vn -0.595935 -0.595929 -0.538266
vn -0.707098 -0.707116 -0.000000
vn -0.595936 -0.595929 0.538265
vn -0.370496 -0.928834 0.000000
vn -0.376967 -0.703135 0.602907
vn -0.282423 -0.629138 -0.724171
vn 0.370487 -0.928838 0.000000
vn 0.282418 -0.629142 -0.724169
vn 0.376957 -0.703140 0.602908
vn 1.000000 0.000001 0.000000
vn 1.000000 0.000000 0.000000
vn 1.000000 0.000000 0.000000
vn 1.000000 0.000001 0.000000
vn -1.000000 0.000000 0.000000
vn -1.000000 0.000001 0.000000
vn -1.000000 0.000001 0.000000
vn -1.000000 0.000000 0.000000
vn -1.000000 0.000000 0.000000
vn -1.000000 0.000000 0.000000
vn 1.000000 0.000001 0.000000
vn 1.000000 0.000001 0.000000
vn -1.000000 0.000000 0.000000
vn -1.000000 0.000000 0.000000
vn 1.000000 0.000001 0.000000
vn 1.000000 0.000001 0.000000
vn -1.000000 0.000000 0.000000
vn -1.000000 0.000000 0.000000
vn -1.000000 0.000000 0.000000
vn -1.000000 0.000000 0.000000
vn 1.000000 -0.000000 0.000000
vn 1.000000 -0.000001 0.000000
vn 1.000000 -0.000001 0.000000
vn 1.000000 -0.000000 0.000000
vn 1.000000 -0.000001 0.000000
vn 1.000000 -0.000001 0.000000
vn -1.000000 -0.000000 0.000000
vn -1.000000 -0.000000 0.000000
vn 1.000000 -0.000002 0.000000
vn 1.000000 -0.000002 0.000000
vn -1.000000 -0.000001 0.000000
vn -1.000000 -0.000001 0.000000
vn 0.000000 0.703943 0.710257
vn 0.000000 0.703943 0.710257
vn 0.000000 -0.703946 0.710253
vn 0.000000 -0.703946 0.710253
usemtl Level_01_v02:lambert4SG
f 13/22/1 14/60/2 44/2/3 43/14/4
f 16/26/5 15/24/6 18/51/7 17/25/8
f 17/25/8 18/51/7 38/20/9 37/6/10
usemtl Level_01_v02:lambert5SG
f 45/67/11 46/64/12 47/65/13 48/66/14
f 46/71/12 45/68/11 49/69/15 50/70/16
f 50/70/16 49/69/15 51/72/17 52/73/18
usemtl Level_01_v02:lambert4SG
f 25/7/19 26/58/20 42/15/21 41/8/22
f 26/9/20 25/35/19 27/37/23 28/39/24
f 28/39/24 27/37/23 30/10/25 29/38/26
f 29/11/26 30/54/25 40/12/27 39/19/28
usemtl Level_01_v02:lambert5SG
f 53/77/29 54/74/30 55/75/31 56/76/32
f 54/81/30 53/78/29 57/79/33 58/80/34
f 58/80/34 57/79/33 59/82/35 60/83/36
usemtl Level_01_v02:lambert4SG
f 1/21/37 10/23/38 15/24/6 13/22/1
f 10/23/38 2/50/39 18/51/7 15/24/6
f 16/26/5 17/25/8 4/29/40 11/27/41
f 14/60/2 16/26/5 11/27/41 3/61/42
f 3/61/42 11/27/41 21/30/43 19/28/44
f 11/27/41 4/29/40 24/4/45 21/30/43
f 22/32/46 23/31/47 6/36/48 12/34/49
f 20/3/50 22/32/46 12/34/49 5/33/51
f 5/33/51 12/34/49 27/37/23 25/35/19
f 12/34/49 6/36/48 30/10/25 27/37/23
f 28/39/24 29/38/26 8/43/52 9/41/53
f 26/9/20 28/39/24 9/41/53 7/40/54
f 7/40/54 9/41/53 33/44/55 31/42/56
f 9/41/53 8/43/52 36/17/57 33/44/55
f 34/48/58 35/45/59 2/46/39 10/47/38
f 32/16/60 34/48/58 10/47/38 1/49/37
f 2/50/39 35/18/59 38/20/9 18/51/7
f 36/52/57 8/53/52 29/11/26 39/19/28
f 40/12/27 30/54/25 6/55/48 23/5/47
f 17/25/8 37/6/10 24/56/45 4/29/40
f 7/57/54 31/13/56 42/15/21 26/58/20
f 32/59/60 1/21/37 13/22/1 43/14/4
f 44/2/3 14/60/2 3/61/42 19/1/44
f 25/7/19 41/8/22 20/62/50 5/63/51
f 20/62/61 41/8/62 47/65/63 46/64/64
f 44/2/65 19/1/66 45/67/67 48/66/68
f 19/28/66 21/30/69 49/69/70 45/68/67
f 22/32/71 20/3/61 46/71/64 50/70/72
f 21/30/69 24/4/73 51/72/74 49/69/70
f 23/31/75 22/32/71 50/70/72 52/73/76
f 32/59/77 43/14/78 55/75/79 54/74/80
f 42/15/81 31/13/82 53/77/83 56/76/84
f 31/42/82 33/44/85 57/79/86 53/78/83
f 34/48/87 32/16/77 54/81/80 58/80/88
f 33/44/85 36/17/89 59/82/90 57/79/86
f 35/45/91 34/48/87 58/80/88 60/83/92
f 41/8/62 42/15/81 56/76/84 47/65/63
f 43/14/78 44/2/65 48/66/68 55/75/79
f 40/84/27 23/85/47 24/86/45 37/87/10
f 39/88/28 40/89/27 37/90/10 38/91/9
f 36/92/57 39/93/28 38/94/9 35/95/59
f 23/96/93 52/97/18 51/98/17 24/99/94
f 59/100/35 36/101/95 35/102/96 60/103/36
usemtl Level_01_v02:lambert5SG
f 55/104/31 48/105/14 47/106/13 56/107/32
usemtl Level_01_v02:lambert4SG
f 14/108/2 13/109/1 15/110/6 16/111/5
