# This file uses centimeters as units for non-parametric coordinates.

mtllib Orb_T.mtl
v 0.274331 -0.274328 0.274328
v 0.274331 -0.274328 -0.274331
v 0.274331 0.274328 0.274328
v 0.274331 0.274328 -0.274331
v -0.274339 0.274328 0.274328
v -0.274339 0.274328 -0.274331
v -0.274339 -0.274328 0.274328
v -0.274339 -0.274328 -0.274331
v -0.370342 -0.370342 -0.000001
v 0.370343 -0.370342 -0.000001
v 0.370343 0.370343 -0.000001
v -0.370342 0.370343 -0.000001
v 0.341543 -0.082288 0.341541
v 0.341543 0.082290 0.341541
v 0.466351 -0.082288 -0.000001
v 0.466351 0.082290 -0.000001
v 0.341543 0.082290 -0.341544
v 0.341543 -0.082288 -0.341544
v 0.082280 0.341541 0.341541
v -0.082289 0.341541 0.341541
v 0.082280 0.466360 -0.000001
v -0.082289 0.466360 -0.000001
v -0.082289 0.341541 -0.341544
v 0.082280 0.341541 -0.341544
v -0.341541 0.082290 0.341541
v -0.341541 -0.082288 0.341541
v -0.466359 0.082290 -0.000001
v -0.466359 -0.082288 -0.000001
v -0.341541 -0.082288 -0.341544
v -0.341541 0.082290 -0.341544
v -0.082289 -0.341541 0.341541
v 0.082280 -0.341541 0.341541
v -0.082289 -0.466359 -0.000001
v 0.082280 -0.466359 -0.000001
v 0.082280 -0.341541 -0.341544
v -0.082289 -0.341541 -0.341544
v 0.082280 0.082290 -0.438930
v 0.082280 -0.082288 -0.438930
v -0.082289 -0.082288 -0.438930
v -0.082289 0.082290 -0.438930
v -0.082289 0.082290 0.438927
v -0.082289 -0.082288 0.438927
v 0.082280 -0.082288 0.438927
v 0.082280 0.082290 0.438927
v 0.277568 -0.082288 0.278140
v 0.277568 0.082290 0.278140
v 0.067418 0.067424 0.357078
v 0.067418 -0.082288 0.357078
v 0.379206 -0.082288 -0.000001
v 0.379206 0.082290 -0.000001
v 0.277568 -0.082288 -0.278138
v 0.277568 0.082290 -0.278138
v 0.082280 0.277568 0.278140
v -0.082289 0.277569 0.278135
v -0.067421 0.067423 0.357078
v 0.082280 0.379216 -0.000001
v -0.082289 0.379216 -0.000001
v 0.082280 0.277569 -0.278138
v -0.082289 0.277568 -0.278138
v -0.277566 0.082290 0.278140
v -0.277566 -0.082288 0.278140
v -0.067421 -0.082288 0.357078
v -0.379214 0.082290 -0.000001
v -0.379214 -0.082288 -0.000001
v -0.277566 0.082290 -0.278138
v -0.277566 -0.082288 -0.278138
vt 0.287494 0.250000
vt 0.285739 0.161112
vt 0.375000 0.412496
vt 0.625000 0.337506
vt 0.787496 0.250000
vt 0.714261 0.161112
vt 0.125000 0.162496
vt 0.214259 0.161112
vt 0.375000 0.662496
vt 0.625000 0.587504
vt 0.875000 0.087504
vt 0.785741 0.161112
vt 0.212504 0.000000
vt 0.285739 0.088888
vt 0.213888 0.089260
vt 0.375000 0.912494
vt 0.625000 0.837504
vt 0.712506 0.000000
vt 0.786112 0.089260
vt 0.714261 0.088888
vt 0.375000 0.000000
vt 0.375000 0.087504
vt 0.500000 0.000000
vt 0.500001 0.097225
vt 0.625000 0.162496
vt 0.500001 0.152775
vt 0.500000 0.250000
vt 0.375000 0.337506
vt 0.625000 0.250000
vt 0.500000 0.347226
vt 0.625000 0.412496
vt 0.500000 0.402775
vt 0.375000 0.500000
vt 0.500000 0.500000
vt 0.375000 0.587504
vt 0.624999 0.500001
vt 0.500000 0.597225
vt 0.625000 0.662496
vt 0.500000 0.652775
vt 0.375001 0.749999
vt 0.500000 0.750000
vt 0.375000 0.837504
vt 0.625000 0.750000
vt 0.500000 0.847225
vt 0.625000 0.912494
vt 0.625000 1.000000
vt 0.500000 1.000000
vt 0.500000 0.902774
vt 0.375000 1.000000
vt 0.625000 0.000000
vt 0.625000 0.087504
vt 0.787496 0.000000
vt 0.875000 0.000000
vt 0.875000 0.162496
vt 0.875000 0.250000
vt 0.712506 0.250000
vt 0.125000 0.000000
vt 0.125000 0.087504
vt 0.287494 0.000000
vt 0.375000 0.162496
vt 0.375000 0.250000
vt 0.212504 0.250000
vt 0.125000 0.250000
vt 0.375000 0.162496
vt 0.285739 0.161112
vt 0.285739 0.088888
vt 0.375000 0.087504
vt 0.500001 0.097225
vt 0.500001 0.152775
vt 0.625000 0.087504
vt 0.625000 0.162496
vt 0.212504 0.250000
vt 0.214259 0.161112
vt 0.287494 0.250000
vt 0.375000 0.337506
vt 0.500000 0.347226
vt 0.500000 0.402775
vt 0.375000 0.412496
vt 0.625000 0.337506
vt 0.625000 0.412496
vt 0.125000 0.087504
vt 0.213888 0.089260
vt 0.125000 0.162496
vt 0.375000 0.587504
vt 0.500000 0.597225
vt 0.500000 0.652775
vt 0.375000 0.662496
vt 0.625000 0.587504
vt 0.625000 0.662496
vt 0.000000 0.000000
vt 1.000000 0.000000
vt 1.000000 0.594249
vt 0.000000 0.594249
vt 0.000000 1.000000
vt 0.999952 1.000000
vt 0.999952 0.000000
vt 0.000000 0.000000
vt 0.000000 0.000000
vt 1.000000 0.000000
vt 1.000000 0.594270
vt 0.000000 0.594270
vt 0.000000 0.594260
vt 1.000000 0.594260
vt 1.000000 0.000000
vt 0.000000 0.000000
vt 0.000000 0.000000
vt 1.000000 0.000000
vt 1.000000 0.547295
vt 0.000000 0.547295
vt 0.000000 0.000000
vt 1.000000 0.000000
vt 1.000000 0.547258
vt 0.000000 0.547256
vt 0.000001 0.000000
vt 1.000000 0.000000
vt 0.999999 0.547278
vt 0.000000 0.547277
vn 0.760018 0.000000 0.649902
vn 0.766178 0.000000 0.642629
vn 0.144920 0.138076 0.979762
vn 0.227039 0.000000 0.973886
vn 1.000000 0.000000 -0.000000
vn 1.000000 0.000000 -0.000000
vn 0.993975 0.000000 -0.109609
vn 0.993975 0.000000 -0.109609
vn -0.000027 0.772952 0.634465
vn -0.000027 0.772961 0.634453
vn -0.144958 0.138077 0.979756
vn -0.000004 1.000000 0.000000
vn -0.000004 1.000000 0.000000
vn 0.000000 0.993971 -0.109641
vn 0.000000 0.993971 -0.109642
vn -0.766174 0.000000 0.642633
vn -0.760015 0.000000 0.649906
vn -0.227041 0.000000 0.973885
vn -1.000000 0.000000 -0.000000
vn -1.000000 0.000000 -0.000000
vn -0.993972 0.000000 -0.109638
vn -0.993972 0.000000 -0.109638
vn -0.211224 -0.739009 0.639726
vn 0.211221 -0.739010 0.639726
vn 0.201673 -0.366148 0.908440
vn -0.201675 -0.366144 0.908441
vn -0.212397 -0.977183 0.000000
vn 0.212395 -0.977184 0.000000
vn -0.211225 -0.739009 -0.639726
vn 0.211223 -0.739010 -0.639726
vn -0.214781 -0.214774 -0.952754
vn 0.214778 -0.214775 -0.952755
vn 0.595924 -0.595935 0.538271
vn 0.707099 -0.707115 -0.000001
vn 0.928836 -0.370490 -0.000001
vn 0.703132 -0.376971 0.602908
vn 0.595924 -0.595935 -0.538271
vn 0.629124 -0.282415 -0.724186
vn 0.928836 0.370492 -0.000001
vn 0.629126 0.282416 -0.724184
vn 0.595924 0.595936 -0.538270
vn 0.707098 0.707116 -0.000001
vn 0.703133 0.376974 0.602906
vn 0.595924 0.595936 0.538270
vn 0.370493 0.928835 -0.000000
vn 0.376963 0.703138 0.602906
vn 0.282419 0.629142 -0.724168
vn -0.370499 0.928833 -0.000001
vn -0.282423 0.629138 -0.724170
vn -0.595935 0.595929 -0.538265
vn -0.707099 0.707114 -0.000001
vn -0.376966 0.703137 0.602906
vn -0.595933 0.595931 0.538267
vn -0.928835 0.370493 0.000000
vn -0.703128 0.376972 0.602912
vn -0.629130 0.282416 -0.724180
vn -0.928836 -0.370491 -0.000001
vn -0.629129 -0.282415 -0.724181
vn -0.595935 -0.595929 -0.538266
vn -0.707100 -0.707114 0.000000
vn -0.703133 -0.376968 0.602909
vn -0.595936 -0.595929 0.538266
vn -0.214782 0.214775 -0.952754
vn 0.214779 0.214776 -0.952754
vn 0.366485 0.366500 0.855200
vn -0.366479 0.366493 0.855205
vn 0.025129 -0.999218 0.030524
vn 0.057998 -0.995828 0.070450
vn 0.057998 -0.995828 0.070450
vn 0.025123 -0.999219 0.030517
vn 0.000000 1.000000 0.000000
vn 0.000000 1.000000 0.000001
vn 0.000000 1.000000 0.000001
vn 0.000000 1.000000 0.000000
vn 0.000000 1.000000 0.000001
vn 0.000000 1.000000 0.000001
vn 0.000000 -1.000000 -0.000001
vn 0.000000 -1.000000 -0.000001
vn 0.000000 1.000000 0.000002
vn 0.000000 1.000000 0.000002
vn 0.000000 -1.000000 -0.000002
vn 0.000000 -1.000000 -0.000002
vn 0.999218 0.025133 0.030524
vn 0.995828 0.058005 0.070445
vn 0.995828 0.058005 0.070445
vn 0.999219 0.025124 0.030514
vn -0.995830 0.057985 0.070424
vn -0.999219 0.025124 0.030513
vn -0.999219 0.025117 0.030505
vn -0.995830 0.057985 0.070424
vn -1.000000 0.000000 0.000000
vn -1.000000 0.000000 0.000000
vn 1.000000 -0.000001 0.000000
vn 1.000000 -0.000001 0.000000
vn -1.000000 0.000000 0.000000
vn -1.000000 0.000000 0.000000
vn 1.000000 -0.000001 0.000000
vn 1.000000 -0.000001 0.000000
vn 0.000000 1.000000 0.000001
vn 0.000000 1.000000 0.000001
vn 0.000000 1.000000 0.000001
vn 0.000000 1.000000 0.000001
vn -0.058002 -0.995828 0.070446
vn -0.025130 -0.999218 0.030522
vn -0.025124 -0.999219 0.030515
vn -0.058002 -0.995828 0.070446
vn 0.000000 -1.000000 0.000001
vn 0.000000 -1.000000 0.000001
vn 0.000000 1.000000 -0.000001
vn 0.000000 1.000000 -0.000001
vn 0.000000 -1.000000 0.000002
vn 0.000000 -1.000000 0.000002
vn 0.000000 1.000000 -0.000002
vn 0.000000 1.000000 -0.000002
vn 0.000000 0.703952 0.710248
vn 0.000000 0.703952 0.710248
vn 0.703934 0.000000 0.710265
vn 0.703934 0.000000 0.710265
vn -0.703934 0.000000 0.710265
vn -0.703934 0.000000 0.710265
usemtl Level_01_v02:lambert5SG
f 45/67/1 46/64/2 47/65/3 48/66/4
f 46/64/2 45/67/1 49/68/5 50/69/6
f 50/69/6 49/68/5 51/70/7 52/71/8
f 53/74/9 54/72/10 55/73/11 47/65/3
f 54/78/10 53/75/9 56/76/12 57/77/13
f 57/77/13 56/76/12 58/79/14 59/80/15
f 60/83/16 61/81/17 62/82/18 55/73/11
f 61/87/17 60/84/16 63/85/19 64/86/20
f 64/86/20 63/85/19 65/88/21 66/89/22
usemtl Level_01_v02:lambert4SG
f 31/13/23 32/59/24 43/14/25 42/15/26
f 32/16/24 31/42/23 33/44/27 34/48/28
f 34/48/28 33/44/27 36/17/29 35/45/30
f 35/18/30 36/52/29 39/19/31 38/20/32
f 1/21/33 10/23/34 15/24/35 13/22/36
f 10/23/34 2/50/37 18/51/38 15/24/35
f 16/26/39 17/25/40 4/29/41 11/27/42
f 14/60/43 16/26/39 11/27/42 3/61/44
f 3/61/44 11/27/42 21/30/45 19/28/46
f 11/27/42 4/29/41 24/4/47 21/30/45
f 22/32/48 23/31/49 6/36/50 12/34/51
f 20/3/52 22/32/48 12/34/51 5/33/53
f 5/33/53 12/34/51 27/37/54 25/35/55
f 12/34/51 6/36/50 30/10/56 27/37/54
f 28/39/57 29/38/58 8/43/59 9/41/60
f 26/9/61 28/39/57 9/41/60 7/40/62
f 7/40/62 9/41/60 33/44/27 31/42/23
f 9/41/60 8/43/59 36/17/29 33/44/27
f 34/48/28 35/45/30 2/46/37 10/47/34
f 32/16/24 34/48/28 10/47/34 1/49/33
f 2/50/37 35/18/30 38/20/32 18/51/38
f 36/52/29 8/53/59 29/11/58 39/19/31
f 40/12/63 30/54/56 6/55/50 23/5/49
f 17/25/40 37/6/64 24/56/47 4/29/41
f 7/57/62 31/13/23 42/15/26 26/58/61
f 32/59/24 1/21/33 13/22/36 43/14/25
f 44/2/65 14/60/43 3/61/44 19/1/46
f 25/7/55 41/8/66 20/62/52 5/63/53
usemtl Level_01_v02:lambert5SG
f 55/73/11 62/82/18 48/66/4 47/65/3
usemtl Level_01_v02:lambert4SG
f 14/60/67 44/2/68 47/65/69 46/64/70
f 43/14/71 13/22/72 45/67/73 48/66/74
f 13/22/72 15/24/75 49/68/76 45/67/73
f 16/26/77 14/60/67 46/64/70 50/69/78
f 15/24/75 18/51/79 51/70/80 49/68/76
f 17/25/81 16/26/77 50/69/78 52/71/82
f 20/62/83 41/8/84 55/73/85 54/72/86
f 44/2/87 19/1/88 53/74/89 47/65/90
f 19/28/88 21/30/91 56/76/92 53/75/89
f 22/32/93 20/3/83 54/78/86 57/77/94
f 21/30/91 24/4/95 58/79/96 56/76/92
f 23/31/97 22/32/93 57/77/94 59/80/98
f 26/58/99 42/15/100 62/82/101 61/81/102
f 41/8/103 25/7/104 60/83/105 55/73/106
f 25/35/104 27/37/107 63/85/108 60/84/105
f 28/39/109 26/9/99 61/87/102 64/86/110
f 27/37/107 30/10/111 65/88/112 63/85/108
f 29/38/113 28/39/109 64/86/110 66/89/114
f 42/15/100 43/14/71 48/66/74 62/82/101
f 40/90/63 23/91/49 24/92/47 37/93/64
f 40/94/63 37/95/64 38/96/32 39/97/31
f 39/98/31 29/99/58 30/100/56 40/101/63
f 37/102/64 17/103/40 18/104/38 38/105/32
f 59/106/15 58/107/14 24/108/115 23/109/116
f 18/110/117 17/111/118 52/112/8 51/113/7
f 66/114/22 65/115/21 30/116/119 29/117/120
