# This file uses centimeters as units for non-parametric coordinates.

mtllib Orb_L.mtl
v 0.274324 -0.274328 0.274328
v 0.274324 -0.274328 -0.274331
v 0.274324 0.274328 0.274328
v 0.274324 0.274328 -0.274331
v -0.274343 0.274328 0.274328
v -0.274343 0.274328 -0.274331
v -0.274343 -0.274328 0.274328
v -0.274343 -0.274328 -0.274331
v -0.370347 -0.370342 -0.000001
v 0.370338 -0.370342 -0.000001
v 0.370338 0.370343 -0.000001
v -0.370347 0.370343 -0.000001
v 0.341540 -0.082288 0.341541
v 0.341540 0.082290 0.341541
v 0.466347 -0.082288 -0.000001
v 0.466347 0.082290 -0.000001
v 0.341540 0.082290 -0.341544
v 0.341540 -0.082288 -0.341544
v 0.082276 0.341541 0.341541
v -0.082295 0.341541 0.341541
v 0.082276 0.466360 -0.000001
v -0.082295 0.466360 -0.000001
v -0.082295 0.341541 -0.341544
v 0.082276 0.341541 -0.341544
v -0.341545 0.082290 0.341541
v -0.341545 -0.082288 0.341541
v -0.466362 0.082290 -0.000001
v -0.466362 -0.082288 -0.000001
v -0.341545 -0.082288 -0.341544
v -0.341545 0.082290 -0.341544
v -0.082295 -0.341541 0.341541
v 0.082276 -0.341541 0.341541
v -0.082295 -0.466359 -0.000001
v 0.082276 -0.466359 -0.000001
v 0.082276 -0.341541 -0.341544
v -0.082295 -0.341541 -0.341544
v 0.082276 0.082290 -0.438930
v 0.082276 -0.082288 -0.438930
v -0.082295 -0.082288 -0.438930
v -0.082295 0.082290 -0.438930
v -0.082295 0.082290 0.438927
v -0.082295 -0.082288 0.438927
v 0.082276 -0.082288 0.438927
v 0.082276 0.082290 0.438927
v 0.082276 0.277568 0.278135
v -0.082295 0.277569 0.278135
v -0.067428 0.067425 0.357078
v 0.082276 0.067424 0.357078
v 0.082276 0.379216 -0.000001
v -0.082295 0.379216 -0.000001
v -0.277569 0.082290 0.278135
v -0.277569 -0.082288 0.278135
v -0.067419 -0.082288 0.357078
v -0.379220 0.082290 -0.000001
v -0.379220 -0.082288 -0.000001
v -0.277569 0.082290 -0.278138
v -0.277569 -0.082288 -0.278138
v 0.082276 -0.082288 0.357078
v 0.082276 0.254397 -0.341544
v -0.082295 0.254397 -0.341544
vt 0.287494 0.250000
vt 0.285739 0.161112
vt 0.375000 0.412496
vt 0.625000 0.337506
vt 0.787496 0.250000
vt 0.714261 0.161112
vt 0.125000 0.162496
vt 0.214259 0.161112
vt 0.375000 0.662496
vt 0.625000 0.587504
vt 0.875000 0.087504
vt 0.785741 0.161112
vt 0.212504 0.000000
vt 0.285739 0.088888
vt 0.213888 0.089260
vt 0.375000 0.912494
vt 0.625000 0.837504
vt 0.712506 0.000000
vt 0.786112 0.089260
vt 0.714261 0.088888
vt 0.375000 0.000000
vt 0.375000 0.087504
vt 0.500000 0.000000
vt 0.500001 0.097225
vt 0.625000 0.162496
vt 0.500001 0.152775
vt 0.500000 0.250000
vt 0.375000 0.337506
vt 0.625000 0.250000
vt 0.500000 0.347226
vt 0.625000 0.412496
vt 0.500000 0.402775
vt 0.375000 0.500000
vt 0.500000 0.500000
vt 0.375000 0.587504
vt 0.624999 0.500001
vt 0.500000 0.597225
vt 0.625000 0.662496
vt 0.500000 0.652775
vt 0.375001 0.749999
vt 0.500000 0.750000
vt 0.375000 0.837504
vt 0.625000 0.750000
vt 0.500000 0.847225
vt 0.625000 0.912494
vt 0.625000 1.000000
vt 0.500000 1.000000
vt 0.500000 0.902774
vt 0.375000 1.000000
vt 0.625000 0.000000
vt 0.625000 0.087504
vt 0.787496 0.000000
vt 0.875000 0.000000
vt 0.875000 0.162496
vt 0.875000 0.250000
vt 0.712506 0.250000
vt 0.125000 0.000000
vt 0.125000 0.087504
vt 0.287494 0.000000
vt 0.375000 0.162496
vt 0.375000 0.250000
vt 0.212504 0.250000
vt 0.125000 0.250000
vt 0.212504 0.250000
vt 0.214259 0.161112
vt 0.285739 0.161112
vt 0.287494 0.250000
vt 0.375000 0.337506
vt 0.500000 0.347226
vt 0.500000 0.402775
vt 0.375000 0.412496
vt 0.125000 0.087504
vt 0.213888 0.089260
vt 0.125000 0.162496
vt 0.375000 0.587504
vt 0.500000 0.597225
vt 0.500000 0.652775
vt 0.375000 0.662496
vt 0.625000 0.587504
vt 0.625000 0.662496
vt 0.285739 0.088888
vt 0.000000 0.594279
vt 1.000000 0.594279
vt 1.000000 0.000000
vt 0.000000 0.000000
vt 0.000000 0.000000
vt 1.000000 0.000000
vt 1.000000 0.999952
vt 0.000000 0.999952
vt 0.000000 0.000000
vt 1.000000 0.000000
vt 1.000000 0.594249
vt 0.000000 0.594249
vt 0.000000 0.000000
vt 0.547284 0.000000
vt 0.547281 1.000000
vt 0.000000 1.000000
vt 0.000000 0.000000
vt 1.000000 0.000000
vt 1.000000 1.000000
vt 0.000000 1.000000
vt 0.000000 0.000000
vt 1.000000 0.000000
vt 1.000000 1.000000
vt 0.000000 1.000000
vt 0.000000 0.000000
vt 1.000000 0.000000
vt 1.000000 0.452572
vt 0.000000 0.452572
vt 0.000000 0.000000
vt 1.000000 0.000000
vt 1.000000 0.529528
vt 0.000000 0.529528
vn 0.739010 -0.211220 0.639727
vn 0.739010 0.211221 0.639726
vn 0.366139 0.201674 0.908444
vn 0.253838 -0.253837 0.933345
vn 0.977184 -0.212393 -0.000001
vn 0.977184 0.212394 -0.000000
vn 0.739007 -0.211222 -0.639730
vn 0.739009 0.211223 -0.639728
vn 0.214777 -0.214776 -0.952755
vn 0.214778 0.214777 -0.952755
vn 0.000016 0.760012 0.649909
vn 0.000016 0.766173 0.642634
vn -0.138927 0.138920 0.980510
vn 0.000018 0.218377 0.975864
vn 0.000004 0.999302 -0.037367
vn 0.000004 0.999302 -0.037367
vn -0.766167 -0.000005 0.642641
vn -0.760009 -0.000005 0.649913
vn -0.218375 -0.000007 0.975865
vn -1.000000 0.000000 0.000000
vn -1.000000 0.000000 0.000000
vn -0.993971 0.000000 -0.109647
vn -0.993971 0.000000 -0.109647
vn -0.211223 -0.739009 0.639727
vn 0.211220 -0.739009 0.639728
vn -0.201675 -0.366144 0.908441
vn -0.212397 -0.977184 0.000000
vn 0.212395 -0.977184 0.000000
vn -0.211225 -0.739009 -0.639726
vn 0.211222 -0.739009 -0.639727
vn -0.214781 -0.214774 -0.952754
vn 0.595922 -0.595937 0.538272
vn 0.707099 -0.707115 -0.000001
vn 0.595922 -0.595937 -0.538272
vn 0.595922 0.595938 -0.538269
vn 0.707098 0.707116 -0.000001
vn 0.595922 0.595938 0.538270
vn 0.370496 0.928834 -0.000001
vn 0.376965 0.703138 0.602905
vn 0.282419 0.629141 -0.724169
vn -0.370501 0.928832 -0.000001
vn -0.282424 0.629138 -0.724170
vn -0.595939 0.595927 -0.538264
vn -0.707104 0.707110 -0.000001
vn -0.376969 0.703137 0.602904
vn -0.595937 0.595928 0.538265
vn -0.928838 0.370486 -0.000000
vn -0.703132 0.376968 0.602910
vn -0.629134 0.282412 -0.724178
vn -0.928839 -0.370484 -0.000001
vn -0.629132 -0.282412 -0.724180
vn -0.595938 -0.595926 -0.538266
vn -0.707104 -0.707109 -0.000000
vn -0.703136 -0.376963 0.602909
vn -0.595939 -0.595926 0.538266
vn -0.214782 0.214775 -0.952754
vn -0.366484 0.366494 0.855203
vn 0.000010 0.000000 1.000000
vn 0.999218 0.025132 0.030523
vn 0.995828 0.058002 0.070443
vn 0.995828 0.058002 0.070443
vn 0.999219 0.025124 0.030512
vn -1.000000 0.000000 0.000000
vn -1.000000 0.000001 0.000000
vn -1.000000 0.000001 0.000000
vn -1.000000 0.000000 0.000000
vn -1.000000 0.000000 0.000000
vn -1.000000 0.000000 0.000000
vn 1.000000 0.000000 0.000000
vn 1.000000 0.000000 0.000000
vn 0.000000 1.000000 0.000000
vn 0.000000 1.000000 -0.000001
vn 0.000000 1.000000 -0.000001
vn 0.000000 1.000000 0.000000
vn -0.057996 -0.995829 0.070436
vn -0.025129 -0.999218 0.030519
vn -0.025122 -0.999219 0.030510
vn -0.057996 -0.995829 0.070436
vn 0.000000 -1.000000 0.000000
vn 0.000000 -1.000000 0.000000
vn 0.000000 1.000000 0.000000
vn 0.000000 1.000000 0.000000
vn 0.000000 -1.000000 0.000002
vn 0.000000 -1.000000 0.000002
vn 0.000000 1.000000 0.000000
vn 0.000000 1.000000 0.000000
vn 0.000000 1.000000 -0.000002
vn 0.000000 1.000000 -0.000002
vn -1.000000 0.000000 0.000000
vn -1.000000 0.000000 0.000000
vn -0.703931 0.000000 0.710268
vn -0.703931 0.000000 0.710268
vn -1.000000 0.000000 0.000000
vn -1.000000 0.000000 0.000000
vn 1.000000 0.000000 0.000000
vn 1.000000 0.000000 0.000000
vn 0.000000 0.939243 -0.343252
vn 0.000000 0.939243 -0.343252
vn 0.000000 0.000000 1.000000
vn 0.000000 0.000000 1.000000
vn 0.000000 0.000000 1.000000
vn 0.000000 0.000000 1.000000
usemtl Level_01_v02:lambert4SG
f 13/22/1 14/60/2 44/2/3 43/14/4
f 14/60/2 13/22/1 15/24/5 16/26/6
f 16/26/6 15/24/5 18/51/7 17/25/8
f 17/25/8 18/51/7 38/20/9 37/6/10
usemtl Level_01_v02:lambert5SG
f 45/67/11 46/64/12 47/65/13 48/66/14
f 46/71/12 45/68/11 49/69/15 50/70/16
f 51/74/17 52/72/18 53/73/19 47/65/13
f 52/78/18 51/75/17 54/76/20 55/77/21
f 55/77/21 54/76/20 56/79/22 57/80/23
usemtl Level_01_v02:lambert4SG
f 31/13/24 32/59/25 43/14/4 42/15/26
f 32/16/25 31/42/24 33/44/27 34/48/28
f 34/48/28 33/44/27 36/17/29 35/45/30
f 35/18/30 36/52/29 39/19/31 38/20/9
f 1/21/32 10/23/33 15/24/5 13/22/1
f 10/23/33 2/50/34 18/51/7 15/24/5
f 16/26/6 17/25/8 4/29/35 11/27/36
f 14/60/2 16/26/6 11/27/36 3/61/37
f 3/61/37 11/27/36 21/30/38 19/28/39
f 11/27/36 4/29/35 24/4/40 21/30/38
f 22/32/41 23/31/42 6/36/43 12/34/44
f 20/3/45 22/32/41 12/34/44 5/33/46
f 5/33/46 12/34/44 27/37/47 25/35/48
f 12/34/44 6/36/43 30/10/49 27/37/47
f 28/39/50 29/38/51 8/43/52 9/41/53
f 26/9/54 28/39/50 9/41/53 7/40/55
f 7/40/55 9/41/53 33/44/27 31/42/24
f 9/41/53 8/43/52 36/17/29 33/44/27
f 34/48/28 35/45/30 2/46/34 10/47/33
f 32/16/25 34/48/28 10/47/33 1/49/32
f 2/50/34 35/18/30 38/20/9 18/51/7
f 36/52/29 8/53/52 29/11/51 39/19/31
f 40/12/56 30/54/49 6/55/43 23/5/42
f 17/25/8 37/6/10 24/56/40 4/29/35
f 7/57/55 31/13/24 42/15/26 26/58/54
f 32/59/25 1/21/32 13/22/1 43/14/4
f 44/2/3 14/60/2 3/61/37 19/1/39
f 25/7/48 41/8/57 20/62/45 5/63/46
usemtl Level_01_v02:lambert5SG
f 47/65/13 53/73/19 58/81/58 48/66/14
usemtl Level_01_v02:lambert4SG
f 20/62/59 41/8/60 47/65/61 46/64/62
f 44/2/63 19/1/64 45/67/65 48/66/66
f 19/28/64 21/30/67 49/69/68 45/68/65
f 22/32/69 20/3/59 46/71/62 50/70/70
f 26/58/71 42/15/72 53/73/73 52/72/74
f 41/8/75 25/7/76 51/74/77 47/65/78
f 25/35/76 27/37/79 54/76/80 51/75/77
f 28/39/81 26/9/71 52/78/74 55/77/82
f 27/37/79 30/10/83 56/79/84 54/76/80
f 29/38/85 28/39/81 55/77/82 57/80/86
f 42/15/72 43/14/87 58/81/88 53/73/73
f 43/14/89 44/2/63 48/66/66 58/81/90
f 30/82/49 40/83/56 39/84/31 29/85/51
f 39/86/31 40/87/56 37/88/10 38/89/9
f 40/90/56 23/91/42 24/92/40 37/93/10
f 29/94/91 57/95/23 56/96/22 30/97/92
f 21/98/67 24/99/93 59/100/94 49/101/68
f 23/102/95 22/103/69 50/104/70 60/105/96
usemtl Level_01_v02:lambert5SG
f 49/106/15 59/107/97 60/108/98 50/109/16
usemtl Level_01_v02:lambert4SG
f 60/110/99 59/111/100 24/112/101 23/113/102
